<svg xmlns="http://www.w3.org/2000/svg">
    <title>symbols defs</title>
    <defs>
        <symbol width="32" height="56" viewBox="0 0 32 56" id="instagram" style="overflow: visible">
            <title>instagram</title>
            <path fill-rule="evenodd" clip-rule="evenodd" d="M11.0209 16.0725C12.3088 16.0132 12.7194 16 16 16C19.2806 16 19.6912 16.0143 20.978 16.0725C22.2647 16.1307 23.1431 16.336 23.9116 16.6335C24.7164 16.9376 25.4465 17.413 26.0504 18.0279C26.6652 18.6306 27.1395 19.3596 27.4425 20.1655C27.7412 20.9341 27.9454 21.8124 28.0047 23.097C28.064 24.387 28.0771 24.7977 28.0771 28.0771C28.0771 31.3577 28.0629 31.7684 28.0047 33.0562C27.9465 34.3408 27.7412 35.2191 27.4425 35.9877C27.1395 36.7937 26.6644 37.5239 26.0504 38.1275C25.4465 38.7424 24.7164 39.2167 23.9116 39.5197C23.1431 39.8183 22.2647 40.0225 20.9802 40.0818C19.6912 40.1411 19.2806 40.1543 16 40.1543C12.7194 40.1543 12.3088 40.14 11.0209 40.0818C9.73635 40.0236 8.85801 39.8183 8.08947 39.5197C7.28351 39.2166 6.55328 38.7415 5.94962 38.1275C5.3352 37.5244 4.85973 36.7945 4.55635 35.9888C4.25882 35.2202 4.0546 34.3419 3.99531 33.0573C3.93603 31.7673 3.92285 31.3566 3.92285 28.0771C3.92285 24.7966 3.93712 24.3859 3.99531 23.0992C4.0535 21.8124 4.25882 20.9341 4.55635 20.1655C4.86017 19.3597 5.33601 18.6299 5.95071 18.0268C6.55352 17.4125 7.28301 16.937 8.08837 16.6335C8.85692 16.336 9.73525 16.1318 11.0198 16.0725H11.0209ZM20.8803 18.2463C19.6067 18.1882 19.2246 18.1761 16 18.1761C12.7754 18.1761 12.3933 18.1882 11.1197 18.2463C9.94166 18.3001 9.30267 18.4967 8.87668 18.6625C8.31344 18.882 7.91051 19.1423 7.48781 19.565C7.08711 19.9548 6.77875 20.4293 6.58531 20.9538C6.41953 21.3798 6.223 22.0188 6.1692 23.1969C6.11101 24.4705 6.09893 24.8525 6.09893 28.0771C6.09893 31.3017 6.11101 31.6838 6.1692 32.9574C6.223 34.1355 6.41953 34.7745 6.58531 35.2005C6.77855 35.7242 7.08706 36.1996 7.48781 36.5893C7.87757 36.9901 8.35297 37.2986 8.87668 37.4918C9.30267 37.6576 9.94166 37.8541 11.1197 37.9079C12.3933 37.9661 12.7743 37.9782 16 37.9782C19.2257 37.9782 19.6067 37.9661 20.8803 37.9079C22.0583 37.8541 22.6973 37.6576 23.1233 37.4918C23.6866 37.2723 24.0895 37.012 24.5122 36.5893C24.9129 36.1996 25.2215 35.7242 25.4147 35.2005C25.5805 34.7745 25.777 34.1355 25.8308 32.9574C25.889 31.6838 25.9011 31.3017 25.9011 28.0771C25.9011 24.8525 25.889 24.4705 25.8308 23.1969C25.777 22.0188 25.5805 21.3798 25.4147 20.9538C25.1951 20.3906 24.9349 19.9877 24.5122 19.565C24.1224 19.1643 23.6478 18.8559 23.1233 18.6625C22.6973 18.4967 22.0583 18.3001 20.8803 18.2463V18.2463ZM14.4574 31.8002C15.3189 32.1588 16.2782 32.2072 17.1714 31.9371C18.0646 31.6671 18.8364 31.0952 19.3548 30.3194C19.8733 29.5435 20.1063 28.6117 20.0141 27.6831C19.9218 26.7545 19.5101 25.8868 18.8491 25.228C18.4278 24.807 17.9183 24.4845 17.3574 24.284C16.7965 24.0834 16.1981 24.0097 15.6053 24.0682C15.0125 24.1267 14.44 24.3159 13.9291 24.6221C13.4182 24.9284 12.9815 25.3441 12.6506 25.8394C12.3196 26.3347 12.1026 26.8972 12.0151 27.4864C11.9276 28.0756 11.9719 28.6769 12.1447 29.247C12.3175 29.8171 12.6145 30.3417 13.0144 30.7832C13.4143 31.2247 13.9072 31.572 14.4574 31.8002ZM11.6105 23.6877C12.1869 23.1112 12.8713 22.654 13.6244 22.342C14.3776 22.03 15.1848 21.8695 16 21.8695C16.8152 21.8695 17.6224 22.03 18.3756 22.342C19.1287 22.654 19.8131 23.1112 20.3895 23.6877C20.9659 24.2641 21.4232 24.9484 21.7352 25.7016C22.0471 26.4547 22.2077 27.2619 22.2077 28.0771C22.2077 28.8924 22.0471 29.6996 21.7352 30.4527C21.4232 31.2059 20.9659 31.8902 20.3895 32.4666C19.2253 33.6308 17.6464 34.2848 16 34.2848C14.3536 34.2848 12.7747 33.6308 11.6105 32.4666C10.4463 31.3025 9.79232 29.7235 9.79232 28.0771C9.79232 26.4308 10.4463 24.8518 11.6105 23.6877V23.6877ZM23.5844 22.7939C23.7273 22.6592 23.8416 22.4972 23.9207 22.3174C23.9998 22.1377 24.0421 21.9439 24.0449 21.7475C24.0478 21.5512 24.0112 21.3563 23.9374 21.1743C23.8636 20.9923 23.754 20.827 23.6151 20.6882C23.4763 20.5493 23.311 20.4397 23.129 20.3659C22.9471 20.2921 22.7521 20.2555 22.5558 20.2584C22.3594 20.2612 22.1656 20.3035 21.9859 20.3826C21.8062 20.4617 21.6441 20.576 21.5094 20.7189C21.2473 20.9967 21.1038 21.3657 21.1094 21.7475C21.115 22.1294 21.2691 22.4941 21.5392 22.7641C21.8092 23.0342 22.1739 23.1883 22.5558 23.1939C22.9376 23.1995 23.3066 23.056 23.5844 22.7939V22.7939Z" fill="currentcolor"></path>
        </symbol>

        <symbol width="32" height="56" viewBox="0 0 32 56" id="whatsapp" style="overflow: visible">
            <title>whatsapp</title>
            <path fill-rule="evenodd" clip-rule="evenodd" d="M24.5373 19.5107C23.4285 18.3946 22.1092 17.5095 20.6558 16.9069C19.2025 16.3043 17.644 15.996 16.0707 16C9.47333 16 4.10267 21.3694 4.1 27.9694C4.1 30.0787 4.65067 32.1374 5.69733 33.9534L4 40.1547L10.3453 38.4894C12.1005 39.4448 14.0669 39.9458 16.0653 39.9467H16.0707C22.6667 39.9467 28.0373 34.5774 28.04 27.9774C28.0445 26.4047 27.7373 24.8467 27.1361 23.3935C26.5349 21.9402 25.6516 20.6205 24.5373 19.5107M16.0707 37.9267H16.0667C14.2847 37.9269 12.5355 37.4475 11.0027 36.5387L10.64 36.3227L6.87467 37.3107L7.87867 33.64L7.64267 33.264C6.64638 31.6779 6.11898 29.8424 6.12133 27.9694C6.124 22.484 10.5867 18.0214 16.0747 18.0214C17.3817 18.0185 18.6763 18.2748 19.8835 18.7756C21.0908 19.2763 22.1868 20.0116 23.108 20.9387C24.0342 21.8614 24.7683 22.9586 25.2678 24.1667C25.7674 25.3748 26.0226 26.67 26.0187 27.9774C26.016 33.4627 21.5533 37.9267 16.0707 37.9267ZM21.528 30.4747C21.228 30.324 19.7587 29.6014 19.484 29.5014C19.2107 29.4014 19.012 29.352 18.812 29.6507C18.612 29.9494 18.0387 30.6227 17.864 30.8227C17.6893 31.0227 17.5147 31.0467 17.216 30.8974C16.9173 30.748 15.9533 30.432 14.8107 29.4134C13.9213 28.62 13.3213 27.6414 13.1467 27.3414C12.972 27.0414 13.128 26.88 13.2787 26.7307C13.4133 26.5974 13.5773 26.3814 13.7267 26.2067C13.876 26.032 13.9253 25.908 14.0253 25.708C14.1253 25.508 14.076 25.3334 14 25.184C13.9253 25.0334 13.3267 23.5614 13.0773 22.9627C12.836 22.3827 12.5893 22.46 12.4053 22.452C12.2148 22.4442 12.0241 22.4407 11.8333 22.4414C11.6817 22.4452 11.5324 22.4804 11.395 22.5446C11.2576 22.6089 11.1349 22.7008 11.0347 22.8147C10.76 23.1147 9.988 23.8374 9.988 25.3094C9.988 26.7814 11.06 28.204 11.2093 28.404C11.3587 28.604 13.3187 31.624 16.3187 32.92C17.0333 33.228 17.5907 33.412 18.024 33.5507C18.74 33.7787 19.392 33.7454 19.908 33.6694C20.4827 33.584 21.6773 32.9467 21.9267 32.248C22.176 31.5494 22.176 30.9507 22.1013 30.8254C22.0267 30.7 21.8253 30.624 21.528 30.4747" fill="currentcolor"></path>
        </symbol>

        <symbol width="32" height="56" viewBox="0 0 32 56" id="linkedin" style="overflow: visible">
            <title>linkedin</title>
            <path fill-rule="evenodd" clip-rule="evenodd" d="M9.78711 19.2161C9.78711 20.7001 8.67002 21.8876 6.87635 21.8876H6.84348C5.11647 21.8876 4 20.7001 4 19.2161C4 17.7006 5.15048 16.5464 6.91025 16.5464C8.67002 16.5464 9.75373 17.7006 9.78711 19.2161ZM9.44834 23.9973V39.4533H4.30422V23.9973H9.44834ZM27.9998 39.4532L28 30.5913C28 25.8438 25.4622 23.6343 22.0772 23.6343C19.346 23.6343 18.1232 25.1345 17.4404 26.1869V23.9977H12.2957C12.3635 25.448 12.2957 39.4536 12.2957 39.4536H17.4404V30.8218C17.4404 30.3598 17.4738 29.899 17.6098 29.5683C17.9816 28.6455 18.8281 27.69 20.2493 27.69C22.1115 27.69 22.8559 29.1073 22.8559 31.1843V39.4532H27.9998Z" fill="currentcolor"></path>
        </symbol>

        <symbol viewBox="0 0 32 56" id="facebook" style="overflow: visible">
            <title>facebook</title>
            <path d="M13.063 29.375V40.552L18.063 40.551V29.374H21.787L22.5 24.749H18.063V21.749C18.063 20.484 18.683 19.249 20.667 19.249H22.688V15.312C22.688 15.312 20.855 15 19.104 15C15.448 15 13.063 17.214 13.063 21.223V24.75H9V29.375H13.063Z" fill="currentcolor"></path>
        </symbol>

    </defs>
</svg>