<svg width="32" height="56" viewBox="0 0 32 56" fill="none" xmlns="http://www.w3.org/2000/svg">
    <path fill-rule="evenodd" clip-rule="evenodd" d="M11.0209 16.0725C12.3088 16.0132 12.7194 16 16 16C19.2806 16 19.6912 16.0143 20.978 16.0725C22.2647 16.1307 23.1431 16.336 23.9116 16.6335C24.7164 16.9376 25.4465 17.413 26.0504 18.0279C26.6652 18.6306 27.1395 19.3596 27.4425 20.1655C27.7412 20.9341 27.9454 21.8124 28.0047 23.097C28.064 24.387 28.0771 24.7977 28.0771 28.0771C28.0771 31.3577 28.0629 31.7684 28.0047 33.0562C27.9465 34.3408 27.7412 35.2191 27.4425 35.9877C27.1395 36.7937 26.6644 37.5239 26.0504 38.1275C25.4465 38.7424 24.7164 39.2167 23.9116 39.5197C23.1431 39.8183 22.2647 40.0225 20.9802 40.0818C19.6912 40.1411 19.2806 40.1543 16 40.1543C12.7194 40.1543 12.3088 40.14 11.0209 40.0818C9.73635 40.0236 8.85801 39.8183 8.08947 39.5197C7.28351 39.2166 6.55328 38.7415 5.94962 38.1275C5.3352 37.5244 4.85973 36.7945 4.55635 35.9888C4.25882 35.2202 4.0546 34.3419 3.99531 33.0573C3.93603 31.7673 3.92285 31.3566 3.92285 28.0771C3.92285 24.7966 3.93712 24.3859 3.99531 23.0992C4.0535 21.8124 4.25882 20.9341 4.55635 20.1655C4.86017 19.3597 5.33601 18.6299 5.95071 18.0268C6.55352 17.4125 7.28301 16.937 8.08837 16.6335C8.85692 16.336 9.73525 16.1318 11.0198 16.0725H11.0209ZM20.8803 18.2463C19.6067 18.1882 19.2246 18.1761 16 18.1761C12.7754 18.1761 12.3933 18.1882 11.1197 18.2463C9.94166 18.3001 9.30267 18.4967 8.87668 18.6625C8.31344 18.882 7.91051 19.1423 7.48781 19.565C7.08711 19.9548 6.77875 20.4293 6.58531 20.9538C6.41953 21.3798 6.223 22.0188 6.1692 23.1969C6.11101 24.4705 6.09893 24.8525 6.09893 28.0771C6.09893 31.3017 6.11101 31.6838 6.1692 32.9574C6.223 34.1355 6.41953 34.7745 6.58531 35.2005C6.77855 35.7242 7.08706 36.1996 7.48781 36.5893C7.87757 36.9901 8.35297 37.2986 8.87668 37.4918C9.30267 37.6576 9.94166 37.8541 11.1197 37.9079C12.3933 37.9661 12.7743 37.9782 16 37.9782C19.2257 37.9782 19.6067 37.9661 20.8803 37.9079C22.0583 37.8541 22.6973 37.6576 23.1233 37.4918C23.6866 37.2723 24.0895 37.012 24.5122 36.5893C24.9129 36.1996 25.2215 35.7242 25.4147 35.2005C25.5805 34.7745 25.777 34.1355 25.8308 32.9574C25.889 31.6838 25.9011 31.3017 25.9011 28.0771C25.9011 24.8525 25.889 24.4705 25.8308 23.1969C25.777 22.0188 25.5805 21.3798 25.4147 20.9538C25.1951 20.3906 24.9349 19.9877 24.5122 19.565C24.1224 19.1643 23.6478 18.8559 23.1233 18.6625C22.6973 18.4967 22.0583 18.3001 20.8803 18.2463V18.2463ZM14.4574 31.8002C15.3189 32.1588 16.2782 32.2072 17.1714 31.9371C18.0646 31.6671 18.8364 31.0952 19.3548 30.3194C19.8733 29.5435 20.1063 28.6117 20.0141 27.6831C19.9218 26.7545 19.5101 25.8868 18.8491 25.228C18.4278 24.807 17.9183 24.4845 17.3574 24.284C16.7965 24.0834 16.1981 24.0097 15.6053 24.0682C15.0125 24.1267 14.44 24.3159 13.9291 24.6221C13.4182 24.9284 12.9815 25.3441 12.6506 25.8394C12.3196 26.3347 12.1026 26.8972 12.0151 27.4864C11.9276 28.0756 11.9719 28.6769 12.1447 29.247C12.3175 29.8171 12.6145 30.3417 13.0144 30.7832C13.4143 31.2247 13.9072 31.572 14.4574 31.8002ZM11.6105 23.6877C12.1869 23.1112 12.8713 22.654 13.6244 22.342C14.3776 22.03 15.1848 21.8695 16 21.8695C16.8152 21.8695 17.6224 22.03 18.3756 22.342C19.1287 22.654 19.8131 23.1112 20.3895 23.6877C20.9659 24.2641 21.4232 24.9484 21.7352 25.7016C22.0471 26.4547 22.2077 27.2619 22.2077 28.0771C22.2077 28.8924 22.0471 29.6996 21.7352 30.4527C21.4232 31.2059 20.9659 31.8902 20.3895 32.4666C19.2253 33.6308 17.6464 34.2848 16 34.2848C14.3536 34.2848 12.7747 33.6308 11.6105 32.4666C10.4463 31.3025 9.79232 29.7235 9.79232 28.0771C9.79232 26.4308 10.4463 24.8518 11.6105 23.6877V23.6877ZM23.5844 22.7939C23.7273 22.6592 23.8416 22.4972 23.9207 22.3174C23.9998 22.1377 24.0421 21.9439 24.0449 21.7475C24.0478 21.5512 24.0112 21.3563 23.9374 21.1743C23.8636 20.9923 23.754 20.827 23.6151 20.6882C23.4763 20.5493 23.311 20.4397 23.129 20.3659C22.9471 20.2921 22.7521 20.2555 22.5558 20.2584C22.3594 20.2612 22.1656 20.3035 21.9859 20.3826C21.8062 20.4617 21.6441 20.576 21.5094 20.7189C21.2473 20.9967 21.1038 21.3657 21.1094 21.7475C21.115 22.1294 21.2691 22.4941 21.5392 22.7641C21.8092 23.0342 22.1739 23.1883 22.5558 23.1939C22.9376 23.1995 23.3066 23.056 23.5844 22.7939V22.7939Z" fill="white"/>
</svg>
