<svg width="32" height="56" viewBox="0 0 32 56"  fill="none" xmlns="http://www.w3.org/2000/svg">
    <path fill-rule="evenodd" clip-rule="evenodd"  d="M24.5373 19.5107C23.4285 18.3946 22.1092 17.5095 20.6558 16.9069C19.2025 16.3043 17.644 15.996 16.0707 16C9.47333 16 4.10267 21.3694 4.1 27.9694C4.1 30.0787 4.65067 32.1374 5.69733 33.9534L4 40.1547L10.3453 38.4894C12.1005 39.4448 14.0669 39.9458 16.0653 39.9467H16.0707C22.6667 39.9467 28.0373 34.5774 28.04 27.9774C28.0445 26.4047 27.7373 24.8467 27.1361 23.3935C26.5349 21.9402 25.6516 20.6205 24.5373 19.5107M16.0707 37.9267H16.0667C14.2847 37.9269 12.5355 37.4475 11.0027 36.5387L10.64 36.3227L6.87467 37.3107L7.87867 33.64L7.64267 33.264C6.64638 31.6779 6.11898 29.8424 6.12133 27.9694C6.124 22.484 10.5867 18.0214 16.0747 18.0214C17.3817 18.0185 18.6763 18.2748 19.8835 18.7756C21.0908 19.2763 22.1868 20.0116 23.108 20.9387C24.0342 21.8614 24.7683 22.9586 25.2678 24.1667C25.7674 25.3748 26.0226 26.67 26.0187 27.9774C26.016 33.4627 21.5533 37.9267 16.0707 37.9267ZM21.528 30.4747C21.228 30.324 19.7587 29.6014 19.484 29.5014C19.2107 29.4014 19.012 29.352 18.812 29.6507C18.612 29.9494 18.0387 30.6227 17.864 30.8227C17.6893 31.0227 17.5147 31.0467 17.216 30.8974C16.9173 30.748 15.9533 30.432 14.8107 29.4134C13.9213 28.62 13.3213 27.6414 13.1467 27.3414C12.972 27.0414 13.128 26.88 13.2787 26.7307C13.4133 26.5974 13.5773 26.3814 13.7267 26.2067C13.876 26.032 13.9253 25.908 14.0253 25.708C14.1253 25.508 14.076 25.3334 14 25.184C13.9253 25.0334 13.3267 23.5614 13.0773 22.9627C12.836 22.3827 12.5893 22.46 12.4053 22.452C12.2148 22.4442 12.0241 22.4407 11.8333 22.4414C11.6817 22.4452 11.5324 22.4804 11.395 22.5446C11.2576 22.6089 11.1349 22.7008 11.0347 22.8147C10.76 23.1147 9.988 23.8374 9.988 25.3094C9.988 26.7814 11.06 28.204 11.2093 28.404C11.3587 28.604 13.3187 31.624 16.3187 32.92C17.0333 33.228 17.5907 33.412 18.024 33.5507C18.74 33.7787 19.392 33.7454 19.908 33.6694C20.4827 33.584 21.6773 32.9467 21.9267 32.248C22.176 31.5494 22.176 30.9507 22.1013 30.8254C22.0267 30.7 21.8253 30.624 21.528 30.4747" fill="white"/>
</svg>
